<?xml version="1.0" standalone="no"?>
<!DOCTYPE svg PUBLIC "-//W3C//DTD SVG 20010904//EN"
 "http://www.w3.org/TR/2001/REC-SVG-20010904/DTD/svg10.dtd">
<svg version="1.0" xmlns="http://www.w3.org/2000/svg"
 width="1024.000000pt" height="1024.000000pt" viewBox="0 0 1024.000000 1024.000000"
 preserveAspectRatio="xMidYMid meet">

<g transform="translate(0.000000,1024.000000) scale(0.100000,-0.100000)"
fill="#000000" stroke="none">
<path d="M3485 7666 c-312 -72 -532 -312 -575 -627 -20 -141 3 -276 70 -414
121 -250 358 -397 642 -399 l108 0 2 -1676 3 -1675 32 -67 c57 -121 166 -201
318 -233 247 -52 487 41 577 223 l33 67 3 792 2 793 23 -5 c160 -36 330 -50
617 -49 279 0 452 16 670 60 698 143 1159 578 1290 1219 50 243 52 560 6 781
-65 310 -186 535 -397 740 -265 255 -598 388 -1169 466 -126 17 -726 17 -920
0 -336 -30 -653 -76 -727 -107 -31 -13 -36 -12 -110 31 -114 65 -187 85 -323
90 -75 2 -136 -1 -175 -10z m280 -211 c177 -46 316 -184 369 -364 32 -111 17
-281 -35 -382 l-18 -37 36 -126 c20 -70 33 -129 29 -133 -3 -3 -65 11 -137 32
l-131 38 -62 -22 c-76 -28 -209 -38 -289 -22 -263 55 -447 321 -408 590 29
200 184 373 381 425 73 19 192 20 265 1z m1850 -555 c194 -23 387 -97 510
-197 116 -95 181 -195 232 -359 25 -84 27 -100 27 -279 0 -174 -2 -198 -26
-287 -66 -241 -198 -397 -431 -509 -179 -85 -376 -114 -732 -105 -352 8 -411
21 -463 99 l-27 41 0 732 0 732 31 39 c48 58 82 73 201 88 132 16 555 19 678
5z"/>
</g>
</svg>
